<svg width="249" height="32" viewBox="0 0 249 32" fill="none" xmlns="http://www.w3.org/2000/svg">
<g clip-path="url(#clip0_81_3494)">
<rect x="16" y="11" width="43" height="2" fill="#1E40AF"/>
<rect x="59" y="11" width="54" height="2" fill="#1E40AF"/>
<rect x="113" y="11" width="64" height="2" fill="#E5E7EB"/>
<rect x="177" y="11" width="64" height="2" fill="#E5E7EB"/>
</g>
<rect width="24" height="24" rx="12" fill="#1E40AF"/>
<path fill-rule="evenodd" clip-rule="evenodd" d="M18.7071 7.29289C19.0976 7.68342 19.0976 8.31658 18.7071 8.70711L10.7071 16.7071C10.3166 17.0976 9.68342 17.0976 9.29289 16.7071L5.29289 12.7071C4.90237 12.3166 4.90237 11.6834 5.29289 11.2929C5.68342 10.9024 6.31658 10.9024 6.70711 11.2929L10 14.5858L17.2929 7.29289C17.6834 6.90237 18.3166 6.90237 18.7071 7.29289Z" fill="white"/>
<rect x="56" width="24" height="24" rx="12" fill="#1E40AF"/>
<path fill-rule="evenodd" clip-rule="evenodd" d="M74.7071 7.29289C75.0976 7.68342 75.0976 8.31658 74.7071 8.70711L66.7071 16.7071C66.3166 17.0976 65.6834 17.0976 65.2929 16.7071L61.2929 12.7071C60.9024 12.3166 60.9024 11.6834 61.2929 11.2929C61.6834 10.9024 62.3166 10.9024 62.7071 11.2929L66 14.5858L73.2929 7.29289C73.6834 6.90237 74.3166 6.90237 74.7071 7.29289Z" fill="white"/>
<rect x="113" y="1" width="22" height="22" rx="11" fill="white"/>
<rect x="113" y="1" width="22" height="22" rx="11" stroke="#1E40AF" stroke-width="2"/>
<circle cx="124" cy="12" r="5" fill="#1E40AF"/>
<rect x="169" y="1" width="22" height="22" rx="11" fill="white"/>
<rect x="169" y="1" width="22" height="22" rx="11" stroke="#D1D5DB" stroke-width="2"/>
<rect x="225" y="1" width="22" height="22" rx="11" fill="white"/>
<rect x="225" y="1" width="22" height="22" rx="11" stroke="#D1D5DB" stroke-width="2"/>
<defs>
<clipPath id="clip0_81_3494">
<rect width="225" height="2" fill="white" transform="translate(16 11)"/>
</clipPath>
</defs>
</svg>
