<svg width="29" height="24" viewBox="0 0 29 24" fill="none" xmlns="http://www.w3.org/2000/svg">
<path d="M27.6084 2.66667H22.8019L22.2944 0.950667C22.2133 0.675889 22.0469 0.434987 21.82 0.263726C21.5931 0.092466 21.3178 -1.99088e-05 21.035 3.21457e-09H8.67692C8.39409 -1.99088e-05 8.11879 0.092466 7.8919 0.263726C7.66501 0.434987 7.49863 0.675889 7.41746 0.950667L6.90999 2.66667H1.31469C0.966009 2.66667 0.631614 2.80714 0.385062 3.05719C0.138511 3.30724 0 3.64638 0 4V22.6667C0 23.0203 0.138511 23.3594 0.385062 23.6095C0.631614 23.8595 0.966009 24 1.31469 24H27.6084C27.9571 24 28.2915 23.8595 28.538 23.6095C28.7846 23.3594 28.9231 23.0203 28.9231 22.6667V4C28.9231 3.64638 28.7846 3.30724 28.538 3.05719C28.2915 2.80714 27.9571 2.66667 27.6084 2.66667ZM26.2937 21.3333H2.62937V5.33333H7.88811C8.17095 5.33335 8.44624 5.24087 8.67313 5.06961C8.90002 4.89835 9.06641 4.65744 9.14758 4.38267L9.65505 2.66667H20.0568L20.5643 4.38267C20.6455 4.65744 20.8119 4.89835 21.0388 5.06961C21.2656 5.24087 21.5409 5.33335 21.8238 5.33333H26.2937V21.3333ZM14.4615 5.33333C13.1614 5.33333 11.8905 5.72433 10.8095 6.45687C9.72854 7.18941 8.88601 8.2306 8.38848 9.44878C7.89096 10.667 7.76078 12.0074 8.01442 13.3006C8.26806 14.5938 8.89411 15.7817 9.81342 16.714C10.7327 17.6464 11.904 18.2813 13.1791 18.5386C14.4542 18.7958 15.7759 18.6638 16.9771 18.1592C18.1782 17.6546 19.2048 16.8001 19.9271 15.7038C20.6494 14.6075 21.035 13.3185 21.035 12C21.0329 10.2325 20.3397 8.53808 19.1073 7.28829C17.875 6.03851 16.2043 5.33545 14.4615 5.33333ZM14.4615 16C13.6815 16 12.9189 15.7654 12.2703 15.3259C11.6217 14.8864 11.1162 14.2616 10.8177 13.5307C10.5192 12.7998 10.4411 11.9956 10.5933 11.2196C10.7454 10.4437 11.1211 9.73098 11.6727 9.17157C12.2243 8.61216 12.927 8.2312 13.6921 8.07686C14.4572 7.92252 15.2502 8.00173 15.9709 8.30448C16.6915 8.60723 17.3075 9.11992 17.7409 9.77772C18.1743 10.4355 18.4056 11.2089 18.4056 12C18.4056 13.0609 17.9901 14.0783 17.2504 14.8284C16.5108 15.5786 15.5076 16 14.4615 16Z" fill="#374151"/>
</svg>
