<svg width="13" height="17" viewBox="0 0 13 17" fill="none" xmlns="http://www.w3.org/2000/svg">
<path d="M7.45913 16.5626C7.24698 16.5626 7.08198 16.51 6.96412 16.4576C6.68126 16.3301 6.20198 15.9776 6.20198 15.0326V10.1951L1.96699 13.9001C1.73128 14.1101 1.35411 14.0951 1.13411 13.8626C0.914111 13.6301 0.929839 13.2776 1.17341 13.0676L6.20198 8.66506V8.32755L1.17341 3.92506C0.929839 3.71506 0.914111 3.36256 1.13411 3.13006C1.35411 2.90506 1.73128 2.88257 1.96699 3.09257L6.20198 6.79757V1.96006C6.20198 1.01506 6.68126 0.655066 6.96412 0.535066C7.24698 0.407566 7.83625 0.287551 8.5984 0.895051L11.6234 3.30257C11.9534 3.56507 12.1498 3.94007 12.1577 4.33757C12.1655 4.73507 11.9927 5.11755 11.6705 5.39505L8.13483 8.49255L11.6705 11.5901C11.9848 11.8676 12.1655 12.2576 12.1577 12.6476C12.1498 13.0451 11.9534 13.4201 11.6234 13.6826L8.5984 16.0901C8.15054 16.4576 7.7577 16.5626 7.45913 16.5626ZM7.38055 9.36256V15.0326C7.38055 15.3101 7.4434 15.4301 7.47483 15.4451C7.48269 15.4376 7.62412 15.4076 7.84412 15.2351L10.8691 12.8276C10.9398 12.7676 10.9791 12.7001 10.9791 12.6251C10.9791 12.5501 10.9477 12.4826 10.877 12.4226L7.38055 9.36256ZM7.45126 1.56256C7.4434 1.57006 7.38055 1.69757 7.38055 1.96757V7.63757L10.877 4.57755C10.9477 4.51755 10.9791 4.45006 10.9791 4.37506C10.9791 4.30006 10.9398 4.23257 10.8691 4.17257L7.83625 1.76505C7.63197 1.60005 7.4984 1.56256 7.45126 1.56256Z" fill="#D1D5DB"/>
</svg>
