<svg width="22" height="21" viewBox="0 0 22 21" fill="none" xmlns="http://www.w3.org/2000/svg">
<path d="M11.4566 9.36678L13.4954 7.59178L11.4566 6.03345V9.36678Z" fill="#1E40AF"/>
<path d="M14.3091 2.16675H6.9766C3.7916 2.16675 1.89285 3.97508 1.89285 7.00841V13.9834C1.89285 17.0251 3.7916 18.8334 6.9766 18.8334H14.3004C17.4854 18.8334 19.3841 17.0251 19.3841 13.9917V7.00841C19.3929 3.97508 17.4941 2.16675 14.3091 2.16675ZM14.3791 12.4917C14.6504 12.7334 14.8079 13.0667 14.7991 13.4084C14.7904 13.7501 14.6241 14.0751 14.3354 14.3084L12.2179 15.9917C11.8504 16.2834 11.5179 16.3667 11.2641 16.3667C11.0629 16.3667 10.9054 16.3167 10.8179 16.2751C10.6166 16.1834 10.1441 15.8834 10.1441 15.0667V12.2167L7.5891 14.4501C7.3266 14.6834 6.9066 14.6667 6.6616 14.4084C6.4166 14.1501 6.4341 13.7584 6.70535 13.5251L10.1441 10.5251V10.4584L6.6966 7.48342C6.4341 7.25008 6.4166 6.85008 6.6616 6.60008C6.9066 6.35008 7.3266 6.32508 7.5891 6.55841L10.1441 8.79175V5.94175C10.1441 5.12508 10.6166 4.82508 10.8179 4.73341C11.0191 4.64175 11.5616 4.49175 12.2179 5.01675L14.3354 6.70008C14.6241 6.92508 14.7904 7.25842 14.7991 7.60008C14.8079 7.94175 14.6591 8.27508 14.3791 8.51675L12.1041 10.5001L14.3791 12.4917Z" fill="#3568D4"/>
<path d="M11.4566 14.9666L13.4954 13.3416L11.4566 11.5833V14.9666Z" fill="#3568D4"/>
</svg>
