<svg width="12" height="14" viewBox="0 0 12 14" fill="none" xmlns="http://www.w3.org/2000/svg">
<path fill-rule="evenodd" clip-rule="evenodd" d="M2.00002 6.19998V4.59998C2.00002 2.39084 3.79088 0.599976 6.00002 0.599976C8.20916 0.599976 10 2.39084 10 4.59998V6.19998C10.8837 6.19998 11.6 6.91632 11.6 7.79998V11.8C11.6 12.6836 10.8837 13.4 10 13.4H2.00002C1.11637 13.4 0.400024 12.6836 0.400024 11.8V7.79998C0.400024 6.91632 1.11637 6.19998 2.00002 6.19998ZM8.40002 4.59998V6.19998H3.60002V4.59998C3.60002 3.27449 4.67454 2.19998 6.00002 2.19998C7.3255 2.19998 8.40002 3.27449 8.40002 4.59998Z" fill="#1F2937"/>
</svg>
