<svg width="236" height="236" viewBox="0 0 236 236" fill="none" xmlns="http://www.w3.org/2000/svg">
<path d="M113.977 44.2363L94.7367 10.9131C91.9383 6.05945 95.4344 0 101.039 0H139.519C145.123 0 148.62 6.06703 145.821 10.9131L126.581 44.2363C123.783 49.0899 116.775 49.0899 113.977 44.2363Z" fill="#D43451"/>
<path d="M62.9986 68.694L25.8304 58.7365C20.4156 57.288 18.603 50.5232 22.5694 46.5645L49.7724 19.3463C53.7312 15.3875 60.4959 17.2 61.9444 22.6073L71.9019 59.7754C73.3504 65.1903 68.3982 70.1349 62.991 68.6864L62.9986 68.694Z" fill="#D43451"/>
<path d="M44.2363 122.031L10.9131 141.271C6.06703 144.069 0 140.566 0 134.961V96.481C0 90.8766 6.06703 87.3805 10.9131 90.1789L44.2363 109.419C49.0899 112.217 49.0899 119.225 44.2363 122.023V122.031Z" fill="#D43451"/>
<path d="M68.694 173.009L58.7365 210.177C57.288 215.592 50.5232 217.405 46.5645 213.438L19.3538 186.228C15.3951 182.269 17.2076 175.504 22.6149 174.056L59.783 164.098C65.1979 162.65 70.1425 167.602 68.694 173.009Z" fill="#D43451"/>
<path d="M122.031 191.764L141.271 225.087C144.069 229.941 140.573 236 134.969 236H96.4886C90.8842 236 87.388 229.933 90.1864 225.087L109.427 191.764C112.225 186.91 119.232 186.91 122.031 191.764Z" fill="#D43451"/>
<path d="M173.009 167.314L210.177 177.271C215.592 178.72 217.405 185.484 213.438 189.443L186.228 216.654C182.269 220.612 175.504 218.8 174.056 213.393L164.098 176.225C162.65 170.81 167.602 165.865 173.009 167.314Z" fill="#D43451"/>
<path d="M191.764 113.977L225.087 94.7367C229.941 91.9383 236 95.4344 236 101.039V139.519C236 145.123 229.933 148.62 225.087 145.821L191.764 126.581C186.91 123.783 186.91 116.775 191.764 113.977Z" fill="#D43451"/>
<path d="M167.314 62.9986L177.271 25.8304C178.72 20.4156 185.484 18.603 189.443 22.5694L216.654 49.78C220.612 53.7387 218.8 60.5035 213.393 61.952L176.225 71.9095C170.81 73.358 165.865 68.4058 167.314 62.9986Z" fill="#D43451"/>
</svg>
