<svg width="21" height="21" viewBox="0 0 21 21" fill="none" xmlns="http://www.w3.org/2000/svg">
<path d="M15.1428 9.42498C15.0095 9.42498 14.8762 9.38331 14.7595 9.29164C11.9512 7.12497 8.32616 7.12497 5.52616 9.29164C5.25116 9.49997 4.85949 9.44997 4.65116 9.1833C4.44283 8.9083 4.49283 8.51663 4.75949 8.3083C8.02616 5.7833 12.2512 5.7833 15.5262 8.3083C15.8012 8.51663 15.8512 8.9083 15.6345 9.1833C15.5178 9.34164 15.3262 9.42498 15.1428 9.42498Z" fill="#D1D5DB"/>
<path d="M13.8094 11.9999C13.6761 11.9999 13.5427 11.9582 13.4261 11.8666C11.4261 10.3249 8.85105 10.3249 6.85105 11.8666C6.57605 12.0749 6.18438 12.0249 5.97605 11.7582C5.76772 11.4832 5.81772 11.0916 6.08438 10.8833C8.54272 8.98325 11.7261 8.98325 14.1844 10.8833C14.4594 11.0916 14.5094 11.4832 14.2927 11.7582C14.1844 11.9166 14.0011 11.9999 13.8094 11.9999Z" fill="#D1D5DB"/>
<path d="M11.9762 14.5751C11.8429 14.5751 11.7095 14.5334 11.5929 14.4418C10.7095 13.7584 9.56788 13.7584 8.68455 14.4418C8.40955 14.6501 8.01788 14.6001 7.80954 14.3334C7.60121 14.0584 7.65122 13.6668 7.91788 13.4584C9.24288 12.4334 11.0262 12.4334 12.3512 13.4584C12.6262 13.6668 12.6762 14.0584 12.4595 14.3334C12.3512 14.4918 12.1679 14.5751 11.9762 14.5751Z" fill="#D1D5DB"/>
<path d="M12.6428 19.4584H7.64284C3.11784 19.4584 1.18451 17.5251 1.18451 13.0001V8.00008C1.18451 3.47508 3.11784 1.54175 7.64284 1.54175H12.6428C17.1678 1.54175 19.1012 3.47508 19.1012 8.00008V13.0001C19.1012 17.5251 17.1678 19.4584 12.6428 19.4584ZM7.64284 2.79175C3.80118 2.79175 2.43451 4.15841 2.43451 8.00008V13.0001C2.43451 16.8417 3.80118 18.2084 7.64284 18.2084H12.6428C16.4845 18.2084 17.8512 16.8417 17.8512 13.0001V8.00008C17.8512 4.15841 16.4845 2.79175 12.6428 2.79175H7.64284Z" fill="#D1D5DB"/>
</svg>
