<svg width="21" height="21" viewBox="0 0 21 21" fill="none" xmlns="http://www.w3.org/2000/svg">
<path d="M13.6345 2.16675H6.65118C3.61784 2.16675 1.80951 3.97508 1.80951 7.00841V13.9834C1.80951 17.0251 3.61784 18.8334 6.65118 18.8334H13.6262C16.6595 18.8334 18.4678 17.0251 18.4678 13.9917V7.00841C18.4762 3.97508 16.6678 2.16675 13.6345 2.16675ZM12.4678 14.3334C12.3428 14.4917 12.1595 14.5751 11.9762 14.5751C11.8428 14.5751 11.7095 14.5334 11.5928 14.4417C10.7095 13.7584 9.56784 13.7584 8.68451 14.4417C8.40951 14.6501 8.01784 14.6001 7.80951 14.3334C7.60118 14.0584 7.65118 13.6667 7.91784 13.4584C9.24284 12.4334 11.0262 12.4334 12.3512 13.4584C12.6345 13.6667 12.6845 14.0584 12.4678 14.3334ZM14.3095 11.7584C14.1845 11.9167 14.0012 12.0001 13.8178 12.0001C13.6845 12.0001 13.5512 11.9584 13.4345 11.8667C11.4345 10.3251 8.85951 10.3251 6.85951 11.8667C6.58451 12.0834 6.19284 12.0334 5.97618 11.7584C5.75951 11.4834 5.81784 11.0917 6.08451 10.8834C8.54284 8.98342 11.7262 8.98342 14.1845 10.8834C14.4678 11.0917 14.5178 11.4834 14.3095 11.7584ZM15.6345 9.18341C15.5095 9.34175 15.3262 9.42508 15.1428 9.42508C15.0095 9.42508 14.8762 9.38342 14.7595 9.29175C11.9512 7.12508 8.32618 7.12508 5.52618 9.29175C5.25118 9.50008 4.85951 9.45008 4.65118 9.18341C4.44284 8.90842 4.49284 8.51675 4.75951 8.30841C8.02618 5.78341 12.2512 5.78341 15.5262 8.30841C15.8012 8.51675 15.8512 8.90842 15.6345 9.18341Z" fill="#1E40AF"/>
</svg>
